<?xml version="1.0" encoding="UTF-8" standalone="no"?>
<!-- Created with Inkscape (http://www.inkscape.org/) -->

<svg
   xmlns:dc="http://purl.org/dc/elements/1.1/"
   xmlns:cc="http://creativecommons.org/ns#"
   xmlns:rdf="http://www.w3.org/1999/02/22-rdf-syntax-ns#"
   xmlns:svg="http://www.w3.org/2000/svg"
   xmlns="http://www.w3.org/2000/svg"
   xmlns:xlink="http://www.w3.org/1999/xlink"
   xmlns:sodipodi="http://sodipodi.sourceforge.net/DTD/sodipodi-0.dtd"
   xmlns:inkscape="http://www.inkscape.org/namespaces/inkscape"
   width="20.05666mm"
   height="40.955765mm"
   viewBox="0 0 20.05666 40.955765"
   version="1.1"
   id="svg6655"
   inkscape:version="0.92.3 (2405546, 2018-03-11)"
   sodipodi:docname="02.svg">
  <defs
     id="defs6649">
    <radialGradient
       id="radialGradient12087"
       xlink:href="#linearGradient4228"
       gradientUnits="userSpaceOnUse"
       cy="-195.17999"
       cx="380.79999"
       gradientTransform="matrix(2.0964,0.0035624,-0.00118,0.32193,-73.79,-370.95)"
       r="66.244003" />
    <linearGradient
       id="linearGradient4228">
      <stop
         id="stop4230"
         style="stop-color:#ffffff"
         offset="0" />
      <stop
         id="stop3161"
         style="stop-color:#ffffff;stop-opacity:0"
         offset=".74684" />
      <stop
         id="stop4232"
         style="stop-color:#ffffff;stop-opacity:0"
         offset="1" />
    </linearGradient>
    <linearGradient
       id="linearGradient12084"
       y2="-145.02"
       xlink:href="#linearGradient3181"
       gradientUnits="userSpaceOnUse"
       x2="333.22"
       gradientTransform="matrix(0.82893,0,0,0.83638,592.3,-237.88)"
       y1="-148.75"
       x1="-60.187" />
    <linearGradient
       id="linearGradient3181">
      <stop
         id="stop3183"
         style="stop-color:#ffffff;stop-opacity:0"
         offset="0" />
      <stop
         id="stop3189"
         style="stop-color:#ffffff;stop-opacity:.069307"
         offset=".26678" />
      <stop
         id="stop3185"
         style="stop-color:#ffffff;stop-opacity:.86634"
         offset=".56962" />
      <stop
         id="stop3191"
         style="stop-color:#ffffff;stop-opacity:.044554"
         offset=".85563" />
      <stop
         id="stop3187"
         style="stop-color:#ffffff;stop-opacity:0"
         offset="1" />
    </linearGradient>
    <radialGradient
       id="radialGradient12081"
       xlink:href="#linearGradient4228"
       gradientUnits="userSpaceOnUse"
       cy="-764.84003"
       cx="-334.29999"
       gradientTransform="matrix(1.49,-0.21479,0.029132,0.19702,1219.6,-697.67)"
       r="94.432999" />
    <radialGradient
       id="radialGradient12078"
       xlink:href="#linearGradient5582"
       gradientUnits="userSpaceOnUse"
       cy="-702.5"
       cx="-395.67001"
       gradientTransform="matrix(0.87922,0.0050912,0.0093106,0.30224,996.72,-505.86)"
       r="25.15" />
    <linearGradient
       id="linearGradient5582">
      <stop
         id="stop5584"
         style="stop-color:#ffffff"
         offset="0" />
      <stop
         id="stop5586"
         style="stop-color:#ffffff;stop-opacity:0"
         offset="1" />
    </linearGradient>
    <radialGradient
       id="radialGradient12075"
       xlink:href="#linearGradient4228"
       gradientUnits="userSpaceOnUse"
       cy="-467.07001"
       cx="-310.31"
       gradientTransform="matrix(0.51786,-1.9234,0.79723,0.30264,1252.5,-908.28)"
       r="85.876999" />
    <radialGradient
       id="radialGradient12072"
       xlink:href="#linearGradient5582"
       gradientUnits="userSpaceOnUse"
       cy="-695.48999"
       cx="-388.35999"
       gradientTransform="matrix(2.1278,-0.76598,0.19245,1.1829,1708.8,-222.96)"
       r="25.15" />
    <radialGradient
       id="radialGradient12069"
       xlink:href="#linearGradient5582"
       gradientUnits="userSpaceOnUse"
       cy="-695.48999"
       cx="-388.35999"
       gradientTransform="matrix(2.0617,-2.4662,0.92674,1.464,2106.8,-538.41)"
       r="25.15" />
  </defs>
  <sodipodi:namedview
     id="base"
     pagecolor="#ffffff"
     bordercolor="#666666"
     borderopacity="1.0"
     inkscape:pageopacity="0.0"
     inkscape:pageshadow="2"
     inkscape:zoom="0.35"
     inkscape:cx="37.90235"
     inkscape:cy="77.396713"
     inkscape:document-units="mm"
     inkscape:current-layer="layer1"
     showgrid="false"
     fit-margin-top="0"
     fit-margin-left="0"
     fit-margin-right="0"
     fit-margin-bottom="0"
     inkscape:window-width="1024"
     inkscape:window-height="717"
     inkscape:window-x="0"
     inkscape:window-y="25"
     inkscape:window-maximized="1" />
  <metadata
     id="metadata6652">
    <rdf:RDF>
      <cc:Work
         rdf:about="">
        <dc:format>image/svg+xml</dc:format>
        <dc:type
           rdf:resource="http://purl.org/dc/dcmitype/StillImage" />
        <dc:title></dc:title>
      </cc:Work>
    </rdf:RDF>
  </metadata>
  <g
     inkscape:label="Layer 1"
     inkscape:groupmode="layer"
     id="layer1"
     transform="translate(-95.805003,-128.35545)">
    <g
       id="g12090"
       transform="matrix(0.08375385,0,0,0.08375385,45.149667,197.24061)">
      <path
         inkscape:connector-curvature="0"
         d="m 790.8,-819.65 c -13.77,17.61 -23.28,8.44 -27.15,18.42 -3.88,9.98 -118.19,21.49 -135.63,25.48 -7.54,-1.55 -38.74,28.36 -13.56,35.94 8.32,2.5 11.62,9.97 11.62,9.97 -5.02,3.88 -12.06,4.64 -13.56,13.97 0,0 1.61,13.1 7.75,17.97 8.14,6.44 50.35,-2.23 54.25,-2 25.58,1.5 33.84,42.5 28.38,44.37 0,0 -40.25,45.59 -59.38,65.41 -35.89,37.18 -35.45,104.42 -1.94,115.75 15.77,5.33 9.97,21 8.19,25 h -3.34 c -24.83,7.9 -29.63,17.18 -29.16,34.4 0.6,11.26 3.01,16.88 18.72,25.22 h -16 c -4.17,0 -7.53,3.36 -7.53,7.53 V -341 c 0,4.18 3.36,7.53 7.53,7.53 h 206.78 c 4.17,0 7.53,-3.35 7.53,-7.53 v -41.22 c 0,-4.17 -3.36,-7.53 -7.53,-7.53 h -14.94 c 10.97,-4.19 18.69,-10.73 18.69,-24.22 1.44,-20.71 -7.91,-31.18 -29.15,-35.4 h -1 c -0.62,-9.71 -3.79,-76.61 19.5,-170.69 15.32,-61.92 19.37,-85.83 23.25,-93.81 3.87,-7.99 -2.4,-55.89 -11.63,-71.85 -7.95,-13.75 -19.37,-46.51 -40.69,-33.93 z"
         style="fill:#000000;fill-rule:evenodd"
         id="path9801" />
      <rect
         x="622.47998"
         y="-446.31"
         width="204.50999"
         height="33.43"
         ry="16.715"
         style="color:#000000;opacity:0.51525005;fill:url(#radialGradient12087)"
         id="rect10827" />
      <rect
         x="620.26001"
         y="-386.60001"
         width="207.12"
         height="48.613998"
         ry="4.2550001"
         style="color:#000000;opacity:0.35592998;fill:url(#linearGradient12084)"
         id="rect10833" />
      <path
         inkscape:connector-curvature="0"
         d="m 624.35,-774.08 c 0,0 -13.61,9 -16.28,15.28 -3.35,7.85 10.87,8.67 13.38,14.87 2.51,6.19 7.11,-4.54 40.99,-3.72 33.88,0.83 102.89,-0.41 113.76,-11.15 10.88,-10.74 37.65,-26.84 26.35,-38.82 -11.29,-11.98 -28.7,-5.03 -38.06,-0.41 -12.54,6.19 -140.98,23.54 -140.14,23.95 z"
         style="opacity:0.71186003;fill:url(#radialGradient12081);fill-rule:evenodd"
         id="path10858" />
      <path
         inkscape:connector-curvature="0"
         d="m 629.31,-730.9 c 0,0 -14.56,4.02 -10.44,14.87 4.12,10.86 16.88,13.29 26.34,10.99 9.47,-2.31 44.44,-13.21 40.13,-18.85 -4.31,-5.64 -59.66,-7.56 -56.03,-7.01 z"
         style="opacity:0.54575997;fill:url(#radialGradient12078);fill-rule:evenodd"
         id="path10874" />
      <path
         inkscape:connector-curvature="0"
         d="m 702.69,-612.71 c -2.46,-24.36 91.28,-42.14 115.72,-0.75 -31.11,107.94 -31.6,127.58 -28.91,167.17 H 650.05 c -21.72,-102.54 68.61,-148.09 52.64,-166.42 z"
         style="color:#000000;opacity:0.50847;fill:url(#radialGradient12075)"
         id="path11853" />
      <path
         inkscape:connector-curvature="0"
         d="m 711.03,-792.77 c 0,0 -29.2,13.52 -20.94,49.97 8.26,36.45 33.85,44.64 52.82,36.9 18.98,-7.74 89.08,-44.37 80.44,-63.32 -8.64,-18.95 -119.59,-25.4 -112.32,-23.55 z"
         style="opacity:0.21695;fill:url(#radialGradient12072);fill-rule:evenodd"
         id="path11865" />
      <path
         inkscape:connector-curvature="0"
         d="m 741.96,-662.81 -34.81,6 c -6,6.75 -51.24,57.64 -59.5,66.53 -15.98,17.04 -27.08,40.16 -28.55,63.37 23.2,13.87 47.78,5.75 60.8,-11.18 14.98,-19.5 60.52,-90.71 62.06,-124.72 z m -34.81,6 c 0.4,-0.45 3.53,-3.97 3.53,-3.97 l -4.06,4.06 z"
         style="opacity:0.46440998;fill:url(#radialGradient12069);fill-rule:evenodd"
         id="path20498" />
    </g>
  </g>
</svg>
