<?xml version="1.0" encoding="UTF-8" standalone="no"?>
<!-- Created with Inkscape (http://www.inkscape.org/) -->

<svg
   xmlns:dc="http://purl.org/dc/elements/1.1/"
   xmlns:cc="http://creativecommons.org/ns#"
   xmlns:rdf="http://www.w3.org/1999/02/22-rdf-syntax-ns#"
   xmlns:svg="http://www.w3.org/2000/svg"
   xmlns="http://www.w3.org/2000/svg"
   xmlns:xlink="http://www.w3.org/1999/xlink"
   xmlns:sodipodi="http://sodipodi.sourceforge.net/DTD/sodipodi-0.dtd"
   xmlns:inkscape="http://www.inkscape.org/namespaces/inkscape"
   width="17.790058mm"
   height="30.622921mm"
   viewBox="0 0 17.790058 30.622921"
   version="1.1"
   id="svg6812"
   inkscape:version="0.92.3 (2405546, 2018-03-11)"
   sodipodi:docname="01.svg">
  <defs
     id="defs6806">
    <linearGradient
       id="linearGradient3330"
       y2="-264.39999"
       xlink:href="#linearGradient3181"
       gradientUnits="userSpaceOnUse"
       x2="247.52"
       gradientTransform="matrix(1.0264,0,0,0.83442,570.11,-138.33)"
       y1="-264.39999"
       x1="41.734001" />
    <linearGradient
       id="linearGradient3181">
      <stop
         id="stop3183"
         style="stop-color:#ffffff;stop-opacity:0"
         offset="0" />
      <stop
         id="stop3189"
         style="stop-color:#ffffff;stop-opacity:.069307"
         offset=".26678" />
      <stop
         id="stop3185"
         style="stop-color:#ffffff;stop-opacity:.86634"
         offset=".56962" />
      <stop
         id="stop3191"
         style="stop-color:#ffffff;stop-opacity:.044554"
         offset=".85563" />
      <stop
         id="stop3187"
         style="stop-color:#ffffff;stop-opacity:0"
         offset="1" />
    </linearGradient>
    <radialGradient
       id="radialGradient3324"
       xlink:href="#linearGradient4228"
       gradientUnits="userSpaceOnUse"
       cy="886.25"
       cx="152.89999"
       gradientTransform="matrix(1.3757,-1.1499e-6,1.1384e-6,1.3291,523.54,-1606.3)"
       r="66.244003" />
    <linearGradient
       id="linearGradient4228">
      <stop
         id="stop4230"
         style="stop-color:#ffffff"
         offset="0" />
      <stop
         id="stop3161"
         style="stop-color:#ffffff;stop-opacity:0"
         offset=".74684" />
      <stop
         id="stop4232"
         style="stop-color:#ffffff;stop-opacity:0"
         offset="1" />
    </linearGradient>
    <radialGradient
       id="radialGradient3321"
       xlink:href="#linearGradient4228"
       gradientUnits="userSpaceOnUse"
       cy="-496"
       cx="-582.54999"
       gradientTransform="matrix(1.2221,-4.1309e-7,1.447e-7,0.43142,1439.8,-358.71)"
       r="65.009003" />
    <radialGradient
       id="radialGradient3318"
       xlink:href="#linearGradient4228"
       gradientUnits="userSpaceOnUse"
       cy="-2310.2"
       cx="154.64999"
       gradientTransform="matrix(0.95514,1.0903e-7,0,0.77089,581.28,1120)"
       r="66.244003" />
    <radialGradient
       id="radialGradient3335"
       xlink:href="#linearGradient4228"
       gradientUnits="userSpaceOnUse"
       cy="25.652"
       cx="154.25999"
       gradientTransform="matrix(1.9976,-4.0726e-6,3.5245e-7,0.29644,433.56,-419.11)"
       r="66.244003" />
  </defs>
  <sodipodi:namedview
     id="base"
     pagecolor="#ffffff"
     bordercolor="#666666"
     borderopacity="1.0"
     inkscape:pageopacity="0.0"
     inkscape:pageshadow="2"
     inkscape:zoom="0.35"
     inkscape:cx="33.619008"
     inkscape:cy="57.870093"
     inkscape:document-units="mm"
     inkscape:current-layer="layer1"
     showgrid="false"
     fit-margin-top="0"
     fit-margin-left="0"
     fit-margin-right="0"
     fit-margin-bottom="0"
     inkscape:window-width="1024"
     inkscape:window-height="717"
     inkscape:window-x="0"
     inkscape:window-y="25"
     inkscape:window-maximized="1" />
  <metadata
     id="metadata6809">
    <rdf:RDF>
      <cc:Work
         rdf:about="">
        <dc:format>image/svg+xml</dc:format>
        <dc:type
           rdf:resource="http://purl.org/dc/dcmitype/StillImage" />
        <dc:title></dc:title>
      </cc:Work>
    </rdf:RDF>
  </metadata>
  <g
     inkscape:label="Layer 1"
     inkscape:groupmode="layer"
     id="layer1"
     transform="translate(-96.938304,-133.52188)">
    <g
       transform="matrix(0.08375385,0,0,0.08375385,43.827378,192.14287)"
       id="g3337">
      <path
         inkscape:connector-curvature="0"
         d="m 729.6,-699.92 c -35.12,0 -63.62,28.48 -63.62,63.6 0,20.09 9.34,38.02 23.9,49.69 h -1.4 c -1.43,0 -32.21,0.1 -32.38,44.4 v 10.13 c 0,2.43 1.95,4.37 4.38,4.37 h 30.12 c -1.55,0.83 -2.59,2.33 -2.59,4.1 5.5,34.11 -11.5,64.68 -43.36,91.92 -1.44,1.46 -1.7,1.82 -5.7,4.76 -6.48,12.9 -6.37,25.79 0,38.69 0,2.27 1.44,4.2 3.47,4.91 h -3 c -2.88,0 -5.19,2.31 -5.19,5.18 v 38.69 c 0,2.87 2.31,5.19 5.19,5.19 h 188.71 c 2.88,0 5.19,-2.32 5.19,-5.19 v -38.69 c 0,-2.87 -2.31,-5.18 -5.19,-5.18 h -4.9 c 2.03,-0.7 3.5,-2.63 3.5,-4.91 7.36,-12.9 5.42,-25.79 0,-38.69 l -5.85,-4.54 c -31.79,-30.5 -47.62,-61.65 -47,-92.14 0,-1.77 -1.04,-3.27 -2.59,-4.1 h 25.22 c 2.43,0 4.37,-1.94 4.37,-4.37 v -10.13 c 0,-40.46 -26.79,-44.07 -31.65,-44.37 14.59,-11.66 23.97,-29.6 23.97,-49.72 0,-35.12 -28.48,-63.6 -63.6,-63.6 z"
         style="color:#000000;fill:#000000"
         id="path7239" />
      <rect
         x="644.08002"
         y="-380.73001"
         width="180.08"
         height="43.577"
         ry="0"
         style="color:#000000;opacity:0.37627001;fill:url(#linearGradient3330)"
         id="rect7284" />
      <path
         inkscape:connector-curvature="0"
         d="m 693.36,-516.4 74.44,-5.65 c -3.14,40.59 56.72,90.2 57.22,93.66 H 647.37 c 49.15,-45.37 55.5,-82.54 45.99,-88.01 z"
         style="color:#000000;opacity:0.51525005;fill:url(#radialGradient3324)"
         id="path8274" />
      <path
         inkscape:connector-curvature="0"
         d="m 701.71,-585.33 67.79,-0.19 c 2.67,0 23.42,5.59 23.42,19.85 0,14.26 -7.9,23.21 -22.16,23.21 l -83.05,0.21 c -14.26,0 -27.04,-9.95 -24.47,-23.42 3.37,-17.68 23.79,-21.34 38.47,-19.66 z"
         style="color:#000000;opacity:0.51525005;fill:url(#radialGradient3321)"
         id="rect8278" />
      <path
         inkscape:connector-curvature="0"
         d="m 727.89,-690.79 c -28.82,-0.39 -52.66,30.53 -44.91,58.32 5.55,26.08 36.41,43.35 61.5,33.78 25.55,-8.15 39.86,-40.71 27.5,-64.78 -7.64,-16.63 -25.68,-28.1 -44.09,-27.32 z"
         style="color:#000000;opacity:0.68475001;fill:url(#radialGradient3318)"
         id="path8291" />
      <rect
         x="636.89001"
         y="-438.57001"
         width="209.64999"
         height="54.120998"
         ry="27.061001"
         style="color:#000000;opacity:0.51525005;fill:url(#radialGradient3335)"
         id="rect3333" />
    </g>
  </g>
</svg>
