<?xml version="1.0" encoding="UTF-8" standalone="no"?>
<!-- Created with Inkscape (http://www.inkscape.org/) -->

<svg
   xmlns:dc="http://purl.org/dc/elements/1.1/"
   xmlns:cc="http://creativecommons.org/ns#"
   xmlns:rdf="http://www.w3.org/1999/02/22-rdf-syntax-ns#"
   xmlns:svg="http://www.w3.org/2000/svg"
   xmlns="http://www.w3.org/2000/svg"
   xmlns:xlink="http://www.w3.org/1999/xlink"
   xmlns:sodipodi="http://sodipodi.sourceforge.net/DTD/sodipodi-0.dtd"
   xmlns:inkscape="http://www.inkscape.org/namespaces/inkscape"
   width="17.745766mm"
   height="39.906197mm"
   viewBox="0 0 17.745766 39.906197"
   version="1.1"
   id="svg6493"
   inkscape:version="0.92.3 (2405546, 2018-03-11)"
   sodipodi:docname="03.svg">
  <defs
     id="defs6487">
    <linearGradient
       id="linearGradient8591"
       y2="-264.39999"
       xlink:href="#linearGradient3181"
       gradientUnits="userSpaceOnUse"
       x2="247.52"
       gradientTransform="matrix(1.1485,0,0,1.0533,-466.93,-85.51)"
       y1="-264.39999"
       x1="41.734001" />
    <linearGradient
       id="linearGradient3181">
      <stop
         id="stop3183"
         style="stop-color:#ffffff;stop-opacity:0"
         offset="0" />
      <stop
         id="stop3189"
         style="stop-color:#ffffff;stop-opacity:.069307"
         offset=".26678" />
      <stop
         id="stop3185"
         style="stop-color:#ffffff;stop-opacity:.86634"
         offset=".56962" />
      <stop
         id="stop3191"
         style="stop-color:#ffffff;stop-opacity:.044554"
         offset=".85563" />
      <stop
         id="stop3187"
         style="stop-color:#ffffff;stop-opacity:0"
         offset="1" />
    </linearGradient>
    <radialGradient
       id="radialGradient8593"
       xlink:href="#linearGradient4228"
       gradientUnits="userSpaceOnUse"
       cy="886.25"
       cx="152.89999"
       gradientTransform="matrix(1.4563,-2.1644e-6,1.8315e-6,2.2525,-507.97,-2442.9)"
       r="66.244003" />
    <linearGradient
       id="linearGradient4228">
      <stop
         id="stop4230"
         style="stop-color:#ffffff"
         offset="0" />
      <stop
         id="stop3161"
         style="stop-color:#ffffff;stop-opacity:0"
         offset=".74684" />
      <stop
         id="stop4232"
         style="stop-color:#ffffff;stop-opacity:0"
         offset="1" />
    </linearGradient>
    <radialGradient
       id="radialGradient8595"
       xlink:href="#linearGradient5582"
       gradientUnits="userSpaceOnUse"
       cy="-423.35001"
       cx="-289.32001"
       gradientTransform="matrix(1.0471,-0.0053114,0.0013817,0.1444,18.569,-369)"
       r="99.435997" />
    <linearGradient
       id="linearGradient5582">
      <stop
         id="stop5584"
         style="stop-color:#ffffff"
         offset="0" />
      <stop
         id="stop5586"
         style="stop-color:#ffffff;stop-opacity:0"
         offset="1" />
    </linearGradient>
    <radialGradient
       id="radialGradient8597"
       xlink:href="#linearGradient5582"
       gradientUnits="userSpaceOnUse"
       cy="-423.35001"
       cx="-289.32001"
       gradientTransform="matrix(0.74804,-0.0072991,9.8703e-4,0.19844,-67.567,-599.06)"
       r="99.435997" />
    <radialGradient
       id="radialGradient8599"
       xlink:href="#linearGradient5582"
       gradientUnits="userSpaceOnUse"
       cy="-423.35001"
       cx="-289.32001"
       gradientTransform="matrix(0.53785,-0.0047435,7.0968e-4,0.12896,-127.56,-579.62)"
       r="99.435997" />
    <linearGradient
       id="linearGradient8601"
       y2="-264.39999"
       xlink:href="#linearGradient3181"
       gradientUnits="userSpaceOnUse"
       x2="247.52"
       gradientTransform="matrix(0.8685,0,0,1.8764,-423.72,-260.91)"
       y1="-264.39999"
       x1="41.734001" />
  </defs>
  <sodipodi:namedview
     id="base"
     pagecolor="#ffffff"
     bordercolor="#666666"
     borderopacity="1.0"
     inkscape:pageopacity="0.0"
     inkscape:pageshadow="2"
     inkscape:zoom="0.35"
     inkscape:cx="33.535323"
     inkscape:cy="75.413273"
     inkscape:document-units="mm"
     inkscape:current-layer="layer1"
     showgrid="false"
     fit-margin-top="0"
     fit-margin-left="0"
     fit-margin-right="0"
     fit-margin-bottom="0"
     inkscape:window-width="1024"
     inkscape:window-height="717"
     inkscape:window-x="0"
     inkscape:window-y="25"
     inkscape:window-maximized="1" />
  <metadata
     id="metadata6490">
    <rdf:RDF>
      <cc:Work
         rdf:about="">
        <dc:format>image/svg+xml</dc:format>
        <dc:type
           rdf:resource="http://purl.org/dc/dcmitype/StillImage" />
        <dc:title></dc:title>
      </cc:Work>
    </rdf:RDF>
  </metadata>
  <g
     inkscape:label="Layer 1"
     inkscape:groupmode="layer"
     id="layer1"
     transform="translate(-96.960446,-128.88023)">
    <g
       transform="matrix(0.08375385,0,0,0.08375385,129.57252,196.66306)"
       id="g8582">
      <path
         inkscape:connector-curvature="0"
         d="m -359.88,-809.31 c -3.53,0 -6.37,2.83 -6.37,6.37 v 95.72 c 0,3.54 2.84,6.38 6.37,6.38 h 8.22 c -6.6,5.65 -10.75,14.05 -10.75,23.46 v 5.57 c 0,16.33 12.54,29.61 28.57,30.78 -3.54,3.34 -5.85,8.93 -5.85,15.28 0,8.53 4.15,15.68 9.85,17.87 -0.66,55.72 -22.01,108.66 -42.78,161.69 -8.45,4.81 -14.13,13.89 -14.13,24.35 v 5.03 c 0,9.51 4.7,17.89 11.91,22.93 h -10.94 c -1.99,0 -3.6,1.61 -3.6,3.6 v 53.84 c 0,1.99 1.61,3.6 3.6,3.6 h 204.69 c 1.99,0 3.59,-1.61 3.59,-3.6 v -53.84 c 0,-1.99 -1.6,-3.6 -3.59,-3.6 h -15.72 c 7.22,-5.04 11.93,-13.42 11.93,-22.93 v -5.03 c 0,-2.03 -0.25,-4.01 -0.65,-5.91 h 0.06 c -0.03,-0.07 -0.06,-0.15 -0.09,-0.22 -0.98,-4.42 -2.99,-8.46 -5.78,-11.81 -31.09,-66.21 -35.16,-115.92 -43.63,-168.31 5.44,-2.42 9.34,-9.39 9.35,-17.66 0,-6.52 -2.44,-12.22 -6.13,-15.53 14.85,-2.26 26.19,-15.03 26.19,-30.53 v -5.57 c 0,-9.41 -4.18,-17.81 -10.78,-23.46 h 5.09 c 3.54,0 6.37,-2.84 6.37,-6.38 v -95.72 c 0,-3.54 -2.83,-6.37 -6.37,-6.37 z"
         style="color:#000000;fill:#000000"
         id="rect8481" />
      <rect
         x="-384.16"
         y="-391.5"
         width="201.50999"
         height="55.006001"
         ry="0"
         style="color:#000000;opacity:0.37627001;fill:url(#linearGradient8591)"
         id="rect8491" />
      <path
         inkscape:connector-curvature="0"
         d="m -324.36,-595.71 82.22,2.78 c -3.46,68.8 48.27,140.24 48.83,146.11 l -187.57,0.27 c 54.29,-76.9 67.02,-139.88 56.52,-149.16 z"
         style="color:#000000;opacity:0.51525005;fill:url(#radialGradient8593)"
         id="path8550" />
      <rect
         x="-379.73001"
         y="-443.48001"
         width="198.87"
         height="28.718"
         ry="14.359"
         rx="29.174"
         style="color:#000000;opacity:0.51525005;fill:url(#radialGradient8595)"
         id="rect8554" />
      <rect
         x="-352.09"
         y="-701.40997"
         width="142.06"
         height="39.465"
         ry="19.733"
         rx="20.841"
         style="color:#000000;opacity:0.51525005;fill:url(#radialGradient8597)"
         id="rect8570" />
      <rect
         x="-332.13"
         y="-646.14001"
         width="102.15"
         height="25.646999"
         ry="12.824"
         rx="14.985"
         style="color:#000000;opacity:0.51525005;fill:url(#radialGradient8599)"
         id="rect8574" />
      <rect
         x="-361.13"
         y="-806.03003"
         width="152.37"
         height="97.995003"
         ry="0"
         style="color:#000000;opacity:0.37627001;fill:url(#linearGradient8601)"
         id="rect8578" />
    </g>
  </g>
</svg>
