<?xml version="1.0" encoding="UTF-8" standalone="no"?>
<!-- Created with Inkscape (http://www.inkscape.org/) -->

<svg
   xmlns:dc="http://purl.org/dc/elements/1.1/"
   xmlns:cc="http://creativecommons.org/ns#"
   xmlns:rdf="http://www.w3.org/1999/02/22-rdf-syntax-ns#"
   xmlns:svg="http://www.w3.org/2000/svg"
   xmlns="http://www.w3.org/2000/svg"
   xmlns:xlink="http://www.w3.org/1999/xlink"
   xmlns:sodipodi="http://sodipodi.sourceforge.net/DTD/sodipodi-0.dtd"
   xmlns:inkscape="http://www.inkscape.org/namespaces/inkscape"
   width="17.755739mm"
   height="39.922035mm"
   viewBox="0 0 17.755739 39.922035"
   version="1.1"
   id="svg4688"
   inkscape:version="0.92.3 (2405546, 2018-03-11)"
   sodipodi:docname="3.svg">
  <defs
     id="defs4682">
    <linearGradient
       id="linearGradient5901"
       y2="-623.78003"
       xlink:href="#linearGradient5840"
       gradientUnits="userSpaceOnUse"
       x2="-1568"
       y1="-622.19"
       x1="-1702.3" />
    <linearGradient
       id="linearGradient5840">
      <stop
         id="stop5842"
         style="stop-color:#b67700"
         offset="0" />
      <stop
         id="stop5846"
         style="stop-color:#ffab0a"
         offset=".5" />
      <stop
         id="stop3521"
         style="stop-color:#ea9900"
         offset=".75" />
      <stop
         id="stop5844"
         style="stop-color:#b67700"
         offset="1" />
    </linearGradient>
    <linearGradient
       id="linearGradient5898"
       y2="-264.39999"
       xlink:href="#linearGradient3181"
       gradientUnits="userSpaceOnUse"
       x2="247.52"
       gradientTransform="matrix(1.1485,0,0,1.0533,1451.1,-92.782)"
       y1="-264.39999"
       x1="41.734001" />
    <linearGradient
       id="linearGradient3181">
      <stop
         id="stop3183"
         style="stop-color:#ffffff;stop-opacity:0"
         offset="0" />
      <stop
         id="stop3189"
         style="stop-color:#ffffff;stop-opacity:.069307"
         offset=".26678" />
      <stop
         id="stop3185"
         style="stop-color:#ffffff;stop-opacity:.86634"
         offset=".56962" />
      <stop
         id="stop3191"
         style="stop-color:#ffffff;stop-opacity:.044554"
         offset=".85563" />
      <stop
         id="stop3187"
         style="stop-color:#ffffff;stop-opacity:0"
         offset="1" />
    </linearGradient>
    <radialGradient
       id="radialGradient5895"
       xlink:href="#linearGradient4228"
       gradientUnits="userSpaceOnUse"
       cy="886.25"
       cx="152.89999"
       gradientTransform="matrix(-1.4563,-2.1644e-6,-1.8315e-6,2.2525,-1410.1,-2450.1)"
       r="66.244003" />
    <linearGradient
       id="linearGradient4228">
      <stop
         id="stop4230"
         style="stop-color:#ffffff"
         offset="0" />
      <stop
         id="stop3161"
         style="stop-color:#ffffff;stop-opacity:0"
         offset=".74684" />
      <stop
         id="stop4232"
         style="stop-color:#ffffff;stop-opacity:0"
         offset="1" />
    </linearGradient>
    <radialGradient
       id="radialGradient5892"
       xlink:href="#linearGradient5582"
       gradientUnits="userSpaceOnUse"
       cy="-423.35001"
       cx="-289.32001"
       gradientTransform="matrix(1.0471,-0.0053114,0.0013817,0.1444,1936.6,-376.27)"
       r="99.435997" />
    <linearGradient
       id="linearGradient5582">
      <stop
         id="stop5584"
         style="stop-color:#ffffff"
         offset="0" />
      <stop
         id="stop5586"
         style="stop-color:#ffffff;stop-opacity:0"
         offset="1" />
    </linearGradient>
    <radialGradient
       id="radialGradient5889"
       xlink:href="#linearGradient5582"
       gradientUnits="userSpaceOnUse"
       cy="-423.35001"
       cx="-289.32001"
       gradientTransform="matrix(0.74804,-0.0072991,9.8703e-4,0.19844,1850.5,-606.33)"
       r="99.435997" />
    <radialGradient
       id="radialGradient5886"
       xlink:href="#linearGradient5582"
       gradientUnits="userSpaceOnUse"
       cy="-423.35001"
       cx="-289.32001"
       gradientTransform="matrix(0.53785,-0.0047435,7.0968e-4,0.12896,1790.5,-586.9)"
       r="99.435997" />
    <linearGradient
       id="linearGradient5883"
       y2="-264.39999"
       xlink:href="#linearGradient3181"
       gradientUnits="userSpaceOnUse"
       x2="247.52"
       gradientTransform="matrix(0.8685,0,0,1.8764,1494.3,-268.18)"
       y1="-264.39999"
       x1="41.734001" />
    <linearGradient
       id="linearGradient5880"
       y2="-717.45001"
       xlink:href="#linearGradient5680"
       gradientUnits="userSpaceOnUse"
       x2="-443.98001"
       gradientTransform="matrix(1.6449,0,0,1,-914.48,15.842)"
       y1="-728.64001"
       x1="-443.98001" />
    <linearGradient
       id="linearGradient5680">
      <stop
         id="stop5682"
         style="stop-color:#502d16;stop-opacity:0"
         offset="0" />
      <stop
         id="stop5686"
         style="stop-color:#502d16;stop-opacity:.49804"
         offset=".5" />
      <stop
         id="stop5684"
         style="stop-color:#502d16;stop-opacity:0"
         offset="1" />
    </linearGradient>
    <linearGradient
       id="linearGradient5877"
       y2="-791.40997"
       xlink:href="#linearGradient3525"
       gradientUnits="userSpaceOnUse"
       x2="-738.58002"
       gradientTransform="matrix(0.70953,0,0,1,-1113.8,118.23)"
       y1="-768.34003"
       x1="-737.65002" />
    <linearGradient
       id="linearGradient3525">
      <stop
         id="stop3527"
         style="stop-color:#502d16"
         offset="0" />
      <stop
         id="stop3529"
         style="stop-color:#502d16;stop-opacity:0"
         offset="1" />
    </linearGradient>
    <linearGradient
       id="linearGradient5874"
       y2="-791.40997"
       xlink:href="#linearGradient3525"
       gradientUnits="userSpaceOnUse"
       x2="-738.58002"
       gradientTransform="matrix(0.52136,0,0,0.5718,-1253.4,-176.43)"
       y1="-768.34003"
       x1="-737.65002" />
    <linearGradient
       id="linearGradient5871"
       y2="-791.40997"
       xlink:href="#linearGradient3525"
       gradientUnits="userSpaceOnUse"
       x2="-738.58002"
       gradientTransform="matrix(0.90185,0,0,0.5718,-970.93,39.032)"
       y1="-768.34003"
       x1="-737.65002" />
  </defs>
  <sodipodi:namedview
     id="base"
     pagecolor="#ffffff"
     bordercolor="#666666"
     borderopacity="1.0"
     inkscape:pageopacity="0.0"
     inkscape:pageshadow="2"
     inkscape:zoom="0.35"
     inkscape:cx="33.554141"
     inkscape:cy="75.443204"
     inkscape:document-units="mm"
     inkscape:current-layer="layer1"
     showgrid="false"
     fit-margin-top="0"
     fit-margin-left="0"
     fit-margin-right="0"
     fit-margin-bottom="0"
     inkscape:window-width="1024"
     inkscape:window-height="717"
     inkscape:window-x="0"
     inkscape:window-y="25"
     inkscape:window-maximized="1" />
  <metadata
     id="metadata4685">
    <rdf:RDF>
      <cc:Work
         rdf:about="">
        <dc:format>image/svg+xml</dc:format>
        <dc:type
           rdf:resource="http://purl.org/dc/dcmitype/StillImage" />
        <dc:title></dc:title>
      </cc:Work>
    </rdf:RDF>
  </metadata>
  <g
     inkscape:label="Layer 1"
     inkscape:groupmode="layer"
     id="layer1"
     transform="translate(-96.955467,-128.87231)">
    <g
       transform="matrix(0.08375385,0,0,0.08375385,242.73738,197.27237)"
       id="g5903">
      <path
         inkscape:connector-curvature="0"
         d="m -1558.2,-816.58 c 3.6,0 6.4,2.83 6.4,6.37 v 95.72 c 0,3.54 -2.8,6.37 -6.4,6.37 h -8.2 c 6.6,5.66 10.8,14.06 10.8,23.47 v 5.57 c 0,16.33 -12.6,29.61 -28.6,30.78 3.6,3.34 5.9,8.93 5.9,15.28 0,8.52 -4.2,15.68 -9.9,17.87 0.7,55.72 22,108.66 42.8,161.69 8.4,4.81 14.1,13.89 14.1,24.34 v 5.04 c 0,9.51 -4.7,17.89 -11.9,22.93 h 11 c 1.9,0 3.5,1.61 3.5,3.6 v 53.84 c 0,1.99 -1.6,3.59 -3.5,3.59 h -204.7 c -2,0 -3.6,-1.6 -3.6,-3.59 v -53.84 c 0,-1.99 1.6,-3.6 3.6,-3.6 h 15.7 c -7.2,-5.04 -12,-13.42 -12,-22.93 v -5.04 c 0,-2.02 0.3,-4 0.7,-5.9 h -0.1 c 0.1,-0.07 0.1,-0.15 0.1,-0.22 1,-4.43 3,-8.46 5.8,-11.81 31.1,-66.21 35.2,-115.93 43.6,-168.32 -5.4,-2.41 -9.3,-9.38 -9.3,-17.65 0,-6.52 2.4,-12.22 6.1,-15.53 -14.8,-2.26 -26.2,-15.03 -26.2,-30.53 v -5.57 c 0,-9.41 4.2,-17.81 10.8,-23.47 h -5.1 c -3.5,0 -6.4,-2.83 -6.4,-6.37 v -95.72 c 0,-3.54 2.9,-6.37 6.4,-6.37 z"
         style="color:#000000;fill:url(#linearGradient5901);stroke:#525252;stroke-width:0.19909"
         id="path5608" />
      <rect
         height="55.006001"
         x="1533.9"
         y="-398.76999"
         width="201.50999"
         ry="0"
         transform="scale(-1,1)"
         style="color:#000000;opacity:0.37627001;fill:url(#linearGradient5898)"
         id="rect5610" />
      <path
         inkscape:connector-curvature="0"
         d="m -1593.7,-602.99 -82.2,2.79 c 3.5,68.79 -48.3,140.24 -48.8,146.11 l 187.6,0.27 c -54.3,-76.9 -67.1,-139.88 -56.6,-149.17 z"
         style="color:#000000;opacity:0.51525005;fill:url(#radialGradient5895)"
         id="path5612" />
      <rect
         x="1538.3"
         y="-450.75"
         width="198.87"
         height="28.718"
         ry="14.359"
         rx="29.174"
         transform="scale(-1,1)"
         style="color:#000000;opacity:0.51525005;fill:url(#radialGradient5892)"
         id="rect5614" />
      <rect
         x="1565.9"
         y="-708.69"
         width="142.06"
         height="39.465"
         ry="19.733"
         rx="20.841"
         transform="scale(-1,1)"
         style="color:#000000;opacity:0.51525005;fill:url(#radialGradient5889)"
         id="rect5616" />
      <rect
         x="1585.9"
         y="-653.40997"
         width="102.15"
         height="25.646999"
         ry="12.824"
         rx="14.985"
         transform="scale(-1,1)"
         style="color:#000000;opacity:0.51525005;fill:url(#radialGradient5886)"
         id="rect5618" />
      <rect
         height="97.995003"
         x="1556.9"
         y="-813.29999"
         width="152.37"
         ry="0"
         transform="scale(-1,1)"
         style="color:#000000;opacity:0.37627001;fill:url(#linearGradient5883)"
         id="rect5620" />
      <path
         inkscape:connector-curvature="0"
         d="m -1670,-722.82 c -14.7,0 -30.5,9.9 -38.9,13.11 3.1,3.21 3.8,-0.27 7.8,1.3 -5.3,2.69 -4.6,5.16 -7.2,8.71 7.8,4.29 20.9,7.38 38.3,7.38 h 78.7 c 14.4,0 24.3,-1.61 32.7,-4.73 -2.5,-4.22 -4.7,-8.87 -8.7,-11.14 6.6,-0.44 9.4,1.98 13.4,-2.27 -8.1,-3.89 -21,-12.36 -37.4,-12.36 z"
         style="color:#000000;opacity:0.51525005;fill:url(#linearGradient5880)"
         id="path5701" />
      <rect
         x="-1709.5"
         y="-697.78998"
         width="151.8"
         height="49.229"
         ry="24.014999"
         rx="28.556"
         style="color:#000000;opacity:0.51525005;fill:url(#linearGradient5877)"
         id="rect5823" />
      <rect
         x="-1691.1"
         y="-643.02002"
         width="111.54"
         height="28.149"
         ry="14.074"
         rx="11.363"
         style="color:#000000;opacity:0.51525005;fill:url(#linearGradient5874)"
         id="rect5827" />
      <rect
         x="-1728.2"
         y="-427.56"
         width="192.95"
         height="28.149"
         ry="14.074"
         rx="14.378"
         style="color:#000000;opacity:0.51525005;fill:url(#linearGradient5871)"
         id="rect5831" />
    </g>
  </g>
</svg>
